:SAMPLES-PER-SECOND 30
:FULLY-SPECIFIED
:DEGREES
64
root  -53.7164 37.6392 -0.796221 -161.09 -16.3811 179.095
RightUpLeg  -56.1973 -24.1224 20.1997
RightLeg  34.5004 -8.97244 -6.84655
RightFoot  -7.48171 0.253841 -9.09325
RightToes  0.000482159 0.542163 -0.142577
Spine  63.2562 -7.60716 7.62288
Spine1  2.57693 1.09425 -21.1451
HEad  -33.444 -1.39047 12.2318
LeftShoulder1  4.9451 -21.473 -12.7726
LeftArm  -36.5159 -52.5616 -18.6798
LeftForeArm  27.0476 -9.47758 -1.01904
LeftHand  -0.25398 0.0180481 5.50724
RightShoulder  7.66419 18.4068 29.3153
RightArm  -28.2398 60.0867 21.1107
RightForeArm  -4.88283 -1.71929 5.5836
RightHand  -1.62093 5.75093 -17.1579
LeftUpLeg  -55.9305 25.9392 -11.3372
LeftLeg  33.5901 3.25466 2.68347
LeftFoot  3.38603 -0.474964 3.52632
LeftToes  1.06247e-005 4.65854e-005 -8.18501e-006
65
root  -54.366 37.3656 -0.914915 -158.617 -16.4102 178.855
RightUpLeg  -59.166 -20.5038 18.1111
RightLeg  36.6463 -10.7666 -8.75056
RightFoot  -5.02182 0.656497 -12.6275
RightToes  0.000482159 0.542163 -0.142577
Spine  66.0849 -7.17621 5.87364
Spine1  2.21792 -0.429916 -17.0138
HEad  -37.0115 0.01906 10.039
LeftShoulder1  5.49467 -20.6232 -16.2855
LeftArm  -44.1814 -58.6906 -4.82025
LeftForeArm  23.4534 -7.09754 -1.43077
LeftHand  -0.25398 0.0180481 5.50724
RightShoulder  6.67034 21.3144 20.4332
RightArm  -34.3509 62.6987 19.3301
RightForeArm  -2.6953 -2.00844 3.86568
RightHand  -1.48432 6.19741 -15.1956
LeftUpLeg  -59.2632 24.5403 -13.2944
LeftLeg  36.059 3.74032 3.28598
LeftFoot  1.11523 -0.547063 4.96258
LeftToes  1.06247e-005 4.65854e-005 -8.18501e-006
66
root  -55.0153 37.0573 -1.07951 -156.175 -16.1513 179.362
RightUpLeg  -62.4811 -18.6599 16.9384
RightLeg  39.5241 -10.3124 -9.26018
RightFoot  -4.51465 0.646897 -11.2877
RightToes  0.000482159 0.542163 -0.142577
Spine  66.8602 -5.63327 8.06639
Spine1  4.10449 3.34821 -16.711
HEad  -41.7385 -6.06894 10.914
LeftShoulder1  5.9071 -28.0134 -11.3057
LeftArm  -54.7412 -62.3361 2.61622
LeftForeArm  22.3965 -5.01746 0.601733
LeftHand  -0.25398 0.0180481 5.50724
RightShoulder  5.24922 15.8442 20.6487
RightArm  -43.4848 66.1762 4.97903
RightForeArm  -5.72169 -1.33978 4.76763
RightHand  -1.48758 6.99909 -14.2972
LeftUpLeg  -63.317 23.96 -15.0405
LeftLeg  39.0498 3.80878 3.68352
LeftFoot  -1.15704 -0.568254 6.43496
LeftToes  1.06247e-005 4.65854e-005 -8.18501e-006
67
root  -55.6217 36.7691 -1.30142 -153.275 -15.5918 -179.945
RightUpLeg  -66.4743 -18.7416 18.4018
RightLeg  41.0065 -8.48688 -8.11662
RightFoot  -4.73705 0.530442 -9.72033
RightToes  0.000482159 0.542163 -0.142577
Spine  67.8135 -3.0803 6.46238
Spine1  5.89888 3.59178 -9.91078
HEad  -45.6167 -5.65485 7.34629
LeftShoulder1  6.5948 -27.381 -14.2913
LeftArm  -69.8991 -64.9221 19.9256
LeftForeArm  18.7821 -5.3668 1.02021
LeftHand  -0.25398 0.0180481 5.50724
RightShoulder  3.22199 15.4586 9.71006
RightArm  -53.1426 68.886 0.468612
RightForeArm  -9.31338 -1.27747 3.17563
RightHand  -1.79525 8.50282 -15.3481
LeftUpLeg  -68.1611 23.8209 -17.0352
LeftLeg  42.1324 3.60614 3.88491
LeftFoot  -2.61202 -0.534679 7.19066
LeftToes  1.06247e-005 4.65854e-005 -8.18501e-006
68
root  -56.164 36.5301 -1.5606 -150.208 -14.9481 -179.684
RightUpLeg  -70.6452 -19.1462 20.5258
RightLeg  42.0286 -7.08647 -7.0911
RightFoot  -4.66515 0.584494 -10.5123
RightToes  0.000482159 0.542163 -0.142577
Spine  69.3366 -2.20035 6.15736
Spine1  4.90675 3.96714 -9.07548
HEad  -47.197 -6.39068 7.71281
LeftShoulder1  5.95107 -28.9343 -10.9386
LeftArm  -77.7665 -64.2179 27.0814
LeftForeArm  16.2901 -6.34717 2.00531
LeftHand  -0.25398 0.0180481 5.50724
RightShoulder  3.00669 14.6685 9.18432
RightArm  -61.5633 70.1091 -9.36407
RightForeArm  -15.1054 -0.0795979 3.64845
RightHand  -2.54111 11.1072 -18.1811
LeftUpLeg  -72.5375 23.306 -19.0998
LeftLeg  44.6659 3.58968 4.20505
LeftFoot  -3.50764 -0.493435 7.50386
LeftToes  1.06247e-005 4.65854e-005 -8.18501e-006
69
root  -56.6467 36.3665 -1.82302 -147.634 -14.4995 -179.621
RightUpLeg  -73.9063 -18.9943 21.3976
RightLeg  43.2313 -6.52457 -6.8348
RightFoot  -4.37604 0.64711 -11.0791
RightToes  0.000482159 0.542163 -0.142577
Spine  71.4288 -2.43863 5.50817
Spine1  2.99982 3.33725 -9.73095
HEad  -47.7367 -5.78972 8.33768
LeftShoulder1  4.92075 -28.7616 -7.52741
LeftArm  -82.1189 -62.6577 32.1935
LeftForeArm  13.2532 -6.90418 2.46451
LeftHand  -0.25398 0.0180481 5.50724
RightShoulder  2.92101 15.2666 8.071
RightArm  -66.7174 70.4834 -14.7525
RightForeArm  -20.9148 1.91029 4.08805
RightHand  -3.74125 14.3468 -22.1897
LeftUpLeg  -75.5745 22.5227 -20.7729
LeftLeg  46.2542 3.73266 4.58849
LeftFoot  -4.46733 -0.450465 7.94047
LeftToes  1.06247e-005 4.65854e-005 -8.18501e-006
70
root  -57.0822 36.2784 -2.08396 -145.526 -14.3254 -179.301
RightUpLeg  -76.0006 -18.2906 21.2653
RightLeg  44.0458 -6.38607 -6.88384
RightFoot  -4.19031 0.575634 -9.62888
RightToes  0.000482159 0.542163 -0.142577
Spine  73.1241 -2.74349 5.17124
Spine1  2.1412 3.11599 -10.1551
HEad  -48.5969 -5.49465 8.45168
LeftShoulder1  3.77855 -28.0227 -3.89351
LeftArm  -85.8157 -61.1007 35.7268
LeftForeArm  10.2652 -7.30853 3.19933
LeftHand  -0.25398 0.0180481 5.50724
RightShoulder  2.33709 14.7184 4.95804
RightArm  -71.0582 70.8177 -17.2852
RightForeArm  -27.0704 4.63921 4.2047
RightHand  -5.1477 17.1776 -26.4896
LeftUpLeg  -77.8286 22.0046 -22.1401
LeftLeg  47.0677 3.69244 4.6707
LeftFoot  -5.59423 -0.393839 8.50215
LeftToes  1.06247e-005 4.65854e-005 -8.18501e-006
